<svg xmlns="http://www.w3.org/2000/svg" viewBox="0 0 47.5 47.5" id="bird"><defs><clipPath id="a"><path d="M0 38h38V0H0v38Z"></path></clipPath></defs><g clip-path="url(#a)" transform="matrix(1.25 0 0 -1.25 0 47.5)"><path fill="#ffac33" d="M9.512 21c0-1.656 1.974-3-.512-3-2.485 0-7.988 2-7.988 3s3.515 3 6 3 2.5-1.343 2.5-3M28.88 3.902a.977.977 0 0 1-.418.391C26.865 5.999 28 8 28 8c0 .552 1 2 0 2l-1-1c-1-1-1-4-1-4h-2a1 1 0 1 1 0-2h1.108l-.222-.12a1 1 0 0 1 .951-1.76l2.639 1.427a.999.999 0 0 1 .404 1.355M21.88 3.902a.977.977 0 0 1-.418.391C19.865 5.999 21 8 21 8c0 .552 1 2 0 2l-1-1c-1-1-1-4-1-4h-2a1 1 0 1 1 0-2h1.108l-.222-.12a1 1 0 0 1 .951-1.76l2.639 1.427a.999.999 0 0 1 .404 1.355"></path><path fill="#dd2e44" d="M36.217 19.625c-1.342 0-7.904-4.613-11.553 5.375-.005.014-.011.024-.017.038a9.497 9.497 0 0 1-7.813 6.858C14.138 34.312 10 34.44 10 33c0-.958 1.15-1.227 2.564-1.468C8.756 30.295 6 26.721 6 22.5c0-4.479 3.103-8.223 7.274-9.227C14.277 9.103 18.022 6 22.5 6c3.953 0 6.934 1.678 8.99 3.999.555.626.112-.603.842-.235 4.24 2.132 5.168 9.861 3.885 9.861"></path><path fill="#292f33" d="M13 25a2 2 0 1 0-4.001.001A2 2 0 0 0 13 25"></path><path fill="#a0041e" d="M22.81 21s-2-10 10-10c1 0 0-2-4-2s-9.999 5-7 11c.633 1.265 1 1 1 1"></path></g></svg>